<?xml version="1.0" encoding="utf-8"?>
<!-- Generator: Adobe Illustrator 16.0.4, SVG Export Plug-In . SVG Version: 6.00 Build 0)  -->
<!DOCTYPE svg PUBLIC "-//W3C//DTD SVG 1.1//EN" "http://www.w3.org/Graphics/SVG/1.1/DTD/svg11.dtd">
<svg version="1.1" id="レイヤー_1" xmlns="http://www.w3.org/2000/svg" xmlns:xlink="http://www.w3.org/1999/xlink" x="0px"
	 y="0px" width="1693.051px" height="229px" viewBox="-596 -22.46 1693.051 229" enable-background="new -596 -22.46 1693.051 229"
	 xml:space="preserve">
<g id="frame">
</g>
<g id="back-ground" display="none">
</g>
<g id="bg">
</g>
<g id="header" display="none">
</g>
<g id="slice">
</g>
<path fill="#FFFFFF" stroke="#FFFFFF" stroke-width="1.5" stroke-miterlimit="10" d="M-554.245,37.842
	c-2.896,0-4.502-2.413-4.502-5.628c0-3.378,1.606-5.628,4.502-5.628h43.578c3.056,0,4.665,2.25,4.665,5.628
	c0,3.215-1.609,5.628-4.665,5.628h-15.762v36.503h13.19c3.056,0,4.662,2.09,4.662,5.467c0,3.215-1.606,5.466-4.662,5.466h-13.19
	v39.239c4.341-1.771,8.522-3.7,12.386-5.468c0.965-0.487,1.93-0.644,2.895-0.644c1.77,0,3.376,0.965,4.501,3.379
	c0.484,0.962,0.805,2.087,0.805,3.056c0,1.927-0.965,3.854-3.056,4.821c-13.19,6.269-29.59,12.543-43.26,16.887
	c-0.805,0.158-1.606,0.321-2.251,0.321c-2.411,0-4.341-1.446-5.306-4.345c-0.16-0.961-0.32-1.767-0.32-2.414
	c0-2.574,1.446-4.662,3.857-5.306c5.951-1.603,12.062-3.697,18.169-5.787v-43.74h-14.796c-2.892,0-4.501-2.251-4.501-5.466
	c0-3.216,1.61-5.467,4.501-5.467h14.796V37.842H-554.245z M-487.991,100.558c-9.006,0-13.668-3.537-13.668-13.189V37.038
	c0-9.809,4.181-13.345,13.668-13.345h59.5c9.005,0,13.828,3.376,13.828,13.345v50.331c0,9.652-4.341,13.189-13.828,13.189h-24.928
	v16.724h35.379c2.736,0,4.182,2.09,4.182,5.307c0,3.214-1.446,5.629-4.182,5.629h-35.379v21.389h41.167
	c2.896,0,4.341,2.25,4.341,5.463c0,3.055-1.446,5.634-4.341,5.634h-98.088c-2.895,0-4.341-2.414-4.341-5.634
	c0-3.213,1.446-5.463,4.341-5.463h45.347v-21.389h-33.128c-2.895,0-4.341-2.415-4.341-5.629c0-3.057,1.446-5.307,4.341-5.307h33.128
	v-16.724H-487.991z M-485.419,34.305c-3.216,0-4.663,0.803-4.663,4.341v18.333h25.088V34.305H-485.419z M-490.082,67.271v18.331
	c0,3.055,1.446,4.341,4.663,4.341h20.425V67.267h-25.088V67.271z M-453.42,56.979h27.178V38.646c0-3.056-1.446-4.341-4.661-4.341
	h-22.517V56.979z M-453.42,89.942h22.517c3.215,0,4.661-0.806,4.661-4.341V67.271h-27.178V89.942z"/>
<path fill="#FFFFFF" stroke="#FFFFFF" stroke-width="1.5" stroke-miterlimit="10" d="M-390.394,36.233
	c-2.895,0-4.501-2.411-4.501-5.787c0-3.218,1.606-5.468,4.501-5.468h48.082c3.056,0,4.505,2.25,4.505,5.468
	c0,3.215-1.449,5.787-4.505,5.787h-18.973c-1.93,13.67-5.951,27.017-11.257,39.721c0.965-0.163,2.091-0.323,3.376-0.323h15.757
	c8.683,0,11.898,4.181,11.898,13.505v52.587c0,9.328-3.216,13.345-11.898,13.345h-19.618c-9.002,0-12.378-4.017-12.378-13.345
	V111.17c0-4.341,0.481-8.686,1.125-12.542c-1.609,2.895-3.216,5.629-4.825,8.038c-1.125,1.93-2.896,2.733-4.822,2.733
	c-1.449,0-3.055-0.641-4.341-1.605c-1.449-0.965-2.415-2.575-2.415-4.506c0-1.288,0.484-2.574,1.449-3.86
	c14.636-19.133,22.674-40.52,26.05-63.194H-390.394z M-352.927,91.394c0-3.539-0.961-4.824-4.017-4.824h-13.026
	c-2.892,0-4.018,1.285-4.018,4.824v47.756c0,3.701,1.125,4.825,4.018,4.825h13.026c3.055,0,4.017-1.124,4.017-4.825V91.394z
	 M-327.682,36.073c-2.892,0-4.501-2.25-4.501-5.789c0-3.216,1.609-5.467,4.501-5.467h75.257c3.056,0,4.666,2.251,4.666,5.467
	c0,3.538-1.61,5.789-4.666,5.789h-13.828v43.74h15.277c2.895,0,4.501,2.411,4.501,5.627c0,3.538-1.606,5.95-4.501,5.95h-15.277
	v71.559c0,2.892-2.411,4.338-6.274,4.338c-3.376,0-6.268-1.446-6.268-4.338V91.394h-24.924
	c-1.286,36.342-9.647,57.406-23.963,73.488c-1.446,1.61-3.376,2.578-5.306,2.578c-1.446,0-2.892-0.487-4.341-1.61
	c-1.77-1.288-2.571-3.215-2.571-4.821c0-1.449,0.48-2.734,1.606-3.86c13.828-14.633,20.904-34.251,22.192-65.769h-15.761
	c-2.892,0-4.502-2.412-4.502-5.95c0-3.215,1.61-5.627,4.502-5.627h15.918v-43.75H-327.682z M-303.559,79.812h24.768v-43.74h-24.768
	V79.812z"/>
<path fill="#FFFFFF" stroke="#FFFFFF" stroke-width="1.5" stroke-miterlimit="10" d="M-155.952,147.995
	c-2.251,5.467-5.146,7.397-10.292,7.397c-4.986,0-8.041-1.931-10.292-7.561l-24.282-60.946
	c-4.663-11.581-12.383-34.895-15.435-44.864c0.481,10.452,2.411,39.558,2.411,62.235v44.703c0,4.341-3.056,6.433-7.557,6.433
	c-4.341,0-7.396-2.092-7.396-6.433V37.681c0-5.789,4.18-9.487,10.288-9.487c7.077,0,10.453,2.573,12.867,8.522l29.589,74.295
	c3.216,7.876,8.522,22.989,9.972,29.909c1.609-7.076,6.431-21.064,10.131-30.23l29.105-73.648c2.574-6.432,6.271-8.844,13.346-8.844
	c5.948,0,10.129,3.699,10.129,9.487v111.279c0,4.342-3.216,6.433-7.397,6.433c-4.341,0-7.557-2.091-7.557-6.433v-44.548
	c0-22.835,1.93-51.62,2.576-62.554c-3.057,10.292-10.94,33.288-15.281,44.223L-155.952,147.995z"/>
<path fill="#FFFFFF" stroke="#FFFFFF" stroke-width="1.5" stroke-miterlimit="10" d="M-75.398,34.787
	c0-4.503,3.214-6.594,7.556-6.594c4.502,0,7.878,2.091,7.878,6.594V148.8c0,4.342-3.376,6.593-7.878,6.593
	c-4.341,0-7.556-2.251-7.556-6.593V34.787z"/>
<path fill="#FFFFFF" stroke="#FFFFFF" stroke-width="1.5" stroke-miterlimit="10" d="M40.855,147.995
	c-2.251,5.467-5.146,7.397-10.292,7.397c-4.985,0-8.04-1.931-10.292-7.561L-4.011,86.886C-8.673,75.305-16.39,51.991-19.446,42.022
	c0.481,10.452,2.411,39.558,2.411,62.235v44.703c0,4.341-3.057,6.433-7.557,6.433c-4.341,0-7.396-2.092-7.396-6.433V37.681
	c0-5.789,4.18-9.487,10.291-9.487c7.073,0,10.449,2.573,12.863,8.522l29.589,74.295c3.216,7.876,8.522,22.989,9.972,29.909
	c1.609-7.076,6.431-21.064,10.131-30.23l29.104-73.648c2.574-6.432,6.271-8.844,13.348-8.844c5.947,0,10.128,3.699,10.128,9.487
	v111.279c0,4.342-3.216,6.433-7.397,6.433c-4.339,0-7.556-2.091-7.556-6.433v-44.548c0-22.835,1.93-51.62,2.574-62.554
	c-3.055,10.292-10.94,33.288-15.281,44.223L40.855,147.995z"/>
<path fill="#FFFFFF" stroke="#FFFFFF" stroke-width="1.5" stroke-miterlimit="10" d="M211.132,49.58
	c2.729,0,4.341,2.091,4.341,5.306c0,3.055-1.609,5.466-4.341,5.466h-10.778c3.542,9.491,9.326,19.62,15.279,27.016
	c1.286,1.447,1.77,2.734,1.77,4.182c0,1.288-0.487,2.572-1.609,3.698c-0.965,1.288-2.251,1.772-3.537,1.772
	c-1.769,0-3.383-0.969-4.507-2.577c-3.854-6.11-7.558-15.117-9.969-23.318c0.965,8.522,2.092,20.583,2.092,27.174v64.648
	c0,3.057-2.092,4.818-5.793,4.818c-3.538,0-5.791-1.762-5.791-4.818v-54.994c0-7.072,0.804-18.17,2.415-32
	c-3.057,16.561-9.812,34.735-16.724,45.668c-1.128,1.766-2.892,2.571-4.504,2.571c-1.286,0-2.411-0.481-3.537-1.125
	c-1.288-1.126-2.09-2.892-2.09-4.662c0-1.125,0.321-2.411,0.965-3.376c9.647-14.312,18.329-35.379,21.865-54.678h-15.276
	c-2.895,0-4.502-2.411-4.502-5.466c0-3.215,1.604-5.306,4.502-5.306h16.883V21.44c0-3.053,2.253-4.662,5.791-4.662
	c3.699,0,5.793,1.608,5.793,4.662v28.14H211.132z M270.307,122.747c10.128,16.082,24.922,26.693,42.612,32.164
	c2.414,0.804,3.859,2.893,3.859,5.307c0,0.641-0.163,1.449-0.322,2.093c-0.965,2.571-2.896,4.182-5.468,4.182
	c-0.804,0-1.449-0.165-2.253-0.484c-18.653-6.111-36.342-19.622-47.114-38.438c-6.913,17.691-21.228,30.719-43.898,38.438
	c-0.965,0.319-2.091,0.641-3.216,0.641c-2.09,0-3.86-0.968-4.985-3.376c-0.321-0.968-0.481-1.773-0.481-2.735
	c0-2.249,1.125-4.18,3.376-4.985c21.225-7.396,33.77-17.848,39.557-32.805H232.84c-8.201,0-11.901-3.216-11.901-11.096V92.032
	c0-8.201,3.697-11.581,11.901-11.581h24.441c0-2.251,0-4.501,0-6.754v-6.589h-13.185c-2.577,0-4.504-1.93-4.504-5.467
	c0-3.053,1.927-5.145,4.504-5.145h38.112c2.571,0,4.501,2.092,4.501,5.145c0,3.537-1.93,5.467-4.501,5.467h-13.831v6.592
	c0,2.253,0,4.502,0,6.754h25.568c8.201,0,12.062,3.376,12.062,11.58v19.616c0,7.883-3.857,11.096-12.062,11.096H270.307z
	 M313.885,59.87c2.091,1.126,3.219,2.895,3.219,4.986c0,0.963-0.162,1.929-0.644,2.894c-1.126,2.25-2.892,3.538-5.146,3.538
	c-0.965,0-2.09-0.323-3.216-0.965c-18.171-9.647-33.771-24.925-44.218-38.433c-0.646-0.804-1.13-1.287-1.771-1.287
	c-0.646,0-1.286,0.483-2.09,1.446c-9.328,13.19-23.156,28.947-39.078,39.077c-1.125,0.644-2.09,0.965-3.214,0.965
	c-1.771,0-3.376-0.965-4.669-2.894c-0.481-0.965-0.799-2.095-0.799-3.057c0-1.93,0.965-3.697,2.572-4.662
	c14.311-9.648,26.857-21.229,37.95-38.432c2.092-3.217,5.631-4.663,9.007-4.663c3.216,0,6.431,1.285,8.358,3.858
	C283.174,38.646,298.611,51.991,313.885,59.87z M254.709,112.94c1.607-7.401,1.93-14.958,2.251-22.355h-20.1
	c-3.055,0-4.344,0.805-4.344,3.858v14.956c0,2.893,1.29,3.541,4.344,3.541H254.709z M290.086,112.94
	c3.055,0,4.345-0.646,4.345-3.541V94.443c0-3.054-1.29-3.858-4.345-3.858h-22.189c-0.324,7.562-0.965,14.954-2.251,22.355H290.086z"
	/>
<path fill="#FFFFFF" stroke="#FFFFFF" stroke-width="1.5" stroke-miterlimit="10" d="M394.434,121.785
	c-19.938,0.962-39.235,1.446-55.639,1.603c-3.854,0-5.786-2.574-5.943-5.625c0-3.541,1.927-5.631,5.307-5.631
	c13.186,0,27.499-0.161,42.452-0.324c2.895-2.094,5.629-4.177,8.36-6.271c-10.612-8.361-19.46-14.473-29.75-19.938
	c-1.765-0.805-2.573-2.412-2.573-3.86c0-1.126,0.483-2.411,1.449-3.538c1.286-1.447,2.892-2.09,4.504-2.09
	c1.126,0,2.411,0.321,3.697,0.965c3.055,1.769,6.111,3.699,9.325,5.627c6.112-4.985,11.742-10.456,16.564-16.562H350.38
	c-3.216,0-4.981,1.126-4.981,4.664v13.023c0,3.216-2.418,4.826-6.111,4.826c-3.7,0-6.111-1.609-6.111-4.985v-14.95
	c0-9.005,4.341-12.863,13.991-12.863h47.438V41.701h-58.373c-2.735,0-4.342-2.572-4.342-5.628c0-2.894,1.603-5.306,4.342-5.306
	h58.373v-8.039c0-3.699,1.766-5.306,5.791-5.306c4.18,0,6.106,1.607,6.106,5.306v8.039h62.395c2.732,0,4.182,2.25,4.182,5.306
	s-1.449,5.628-4.182,5.628h-62.395v14.154h50.817c9.65,0,13.992,3.858,13.992,12.863v15.113c0,3.378-2.415,4.984-6.111,4.984
	c-3.699,0-6.112-1.606-6.112-4.823V70.808c0-3.537-1.765-4.664-5.145-4.664h-47.919c-6.435,8.04-13.83,15.758-21.872,22.351
	c4.669,3.214,9.166,6.595,13.511,10.129c9.807-8.199,17.849-16.083,23.314-22.673c1.61-1.93,3.379-2.895,5.306-2.895
	c1.13,0,2.255,0.321,3.381,0.965c1.931,1.125,3.055,2.894,3.055,4.663c0,1.126-0.324,2.091-1.124,2.894
	c-9.168,9.487-22.033,21.068-34.575,29.747c15.757-0.641,31.68-1.286,47.437-2.411c-3.535-3.535-6.912-6.592-10.128-9.326
	c-0.965-0.805-1.449-1.93-1.449-3.057c0-1.445,0.643-2.892,2.414-4.018c1.127-0.806,2.414-1.125,3.697-1.125
	c1.766,0,3.376,0.643,4.501,1.607c8.688,7.396,20.905,19.618,27.982,28.301c0.966,1.289,1.449,2.735,1.449,4.023
	c0,1.604-0.803,3.213-2.249,4.181c-1.13,0.962-2.414,1.283-3.697,1.283c-1.93,0-3.7-0.802-4.825-2.251
	c-2.57-3.055-5.627-6.752-8.842-10.288c-15.599,1.284-31.043,2.25-46.637,3.052v41.166c0,2.892-2.414,4.821-6.111,4.821
	c-3.7,0-6.111-1.93-6.111-4.821v-40.676H394.434z M379.962,134.328c0,1.124-0.48,2.414-1.445,3.539
	c-9.167,9.644-24.283,18.65-36.501,23.797c-0.802,0.483-1.767,0.641-2.575,0.641c-2.25,0-4.341-1.286-5.466-3.697
	c-0.487-0.966-0.645-1.931-0.645-2.893c0-2.253,1.285-4.18,3.699-5.309c11.414-4.825,23.315-11.897,31.84-20.102
	c1.126-1.127,2.729-1.924,4.502-1.924c1.285,0,2.734,0.319,4.021,1.281C378.997,130.789,379.962,132.561,379.962,134.328z
	 M428.688,126.444c1.768,0,3.38,0.804,4.987,2.25c8.201,8.362,23.154,17.211,33.767,21.392c2.414,0.966,4.02,3.056,4.02,5.629
	c0,0.803-0.159,1.768-0.641,2.732c-0.965,2.411-3.379,3.536-5.948,3.536c-1.128,0-2.253-0.157-3.215-0.641
	c-13.191-5.47-28.464-15.594-37.791-24.925c-1.285-1.281-1.77-2.73-1.77-4.017c0-1.927,1.125-3.539,2.734-4.666
	C426.115,126.929,427.404,126.444,428.688,126.444z"/>
<path fill="#FFFFFF" stroke="#FFFFFF" stroke-width="1.5" stroke-miterlimit="10" d="M596.882,35.107
	c7.721,0,12.383,1.93,15.438,5.792c2.411,2.895,3.376,6.915,3.376,11.577c0,1.448-0.16,2.896-0.319,4.502
	c-6.917,48.885-40.69,85.55-94.074,98.736c-0.965,0.321-1.93,0.484-2.895,0.484c-3.057,0-5.146-1.608-6.111-4.507
	c-0.16-0.806-0.321-1.764-0.321-2.571c0-3.216,1.93-5.79,5.146-6.752c46.312-12.223,77.827-42.62,83.134-85.875
	c0.164-0.804,0.164-1.607,0.164-2.412c0-4.181-2.091-5.306-7.076-5.306h-93.749c-3.697,0-5.787-2.894-5.787-6.914
	c0-3.858,2.249-6.754,5.787-6.754H596.882L596.882,35.107z"/>
<path fill="#FFFFFF" stroke="#FFFFFF" stroke-width="1.5" stroke-miterlimit="10" d="M745.617,72.576
	c2.896,0,4.669,2.413,4.669,5.789c0,3.697-1.771,5.792-4.669,5.792l-24.44,0.16l1.126,71.882c0,3.376-2.575,5.468-6.271,5.468
	c-4.182,0-6.596-2.092-6.596-5.307l-0.484-49.691c0-4.506,0.484-8.844,0.965-13.991h-0.324c-2.892,6.109-7.071,12.221-11.736,18.012
	c-12.867,15.434-30.231,28.785-46.153,35.696c-1.124,0.487-2.09,0.645-3.055,0.645c-2.411,0-4.341-1.285-5.306-3.536
	c-0.481-0.969-0.806-2.093-0.806-3.22c0-2.414,1.289-4.664,3.7-5.625c21.225-9.167,43.258-28.789,55.8-50.178l-52.267,0.161
	c-2.893,0-4.819-2.574-4.819-5.792c0-3.539,1.927-5.95,4.819-5.95l58.694-0.321l-0.159-16.08c0-3.215,2.73-5.146,6.431-5.146
	c3.86,0,6.111,1.93,6.111,4.824c0,0.16,0,0.16,0,0.321l0.322,16.08h24.447V72.576z"/>
<path fill="#FFFFFF" stroke="#FFFFFF" stroke-width="1.5" stroke-miterlimit="10" d="M785.168,100.396
	c-4.02,0-6.274-2.577-6.274-6.915c0-4.18,2.255-7.234,6.435-7.234h122.051c4.18,0,6.436,3.055,6.436,7.234
	c0,4.344-2.256,6.915-6.272,6.915H785.168z"/>
<path fill="#FFFFFF" stroke="#FFFFFF" stroke-width="1.5" stroke-miterlimit="10" d="M1039.074,126.286
	c-7.563-15.76-16.729-32.968-25.893-47.438c-0.639-1.126-0.965-2.251-0.965-3.376c0-2.253,1.128-4.343,3.218-5.306
	c1.125-0.482,2.09-0.646,3.218-0.646c2.412,0,4.662,1.288,6.27,3.539c14.312,21.547,28.785,49.367,37.79,72.202
	c0.642,1.609,0.962,2.896,0.962,4.18c0,3.057-1.768,5.307-5.146,6.596c-1.124,0.484-2.09,0.641-3.214,0.641
	c-2.572,0-4.662-1.445-5.628-4.017c-1.61-4.665-3.381-8.686-5.793-14.151c-30.716,5.791-73.49,10.128-111.597,11.577
	c-0.163,0-0.488,0-0.646,0c-3.86,0-6.752-2.41-6.915-6.436c0-0.319,0-0.641,0-0.8c0-4.182,2.419-7.077,5.95-7.077
	c1.931-0.159,3.86-0.159,5.794-0.159c1.93,0,3.856,0,5.787,0c16.242-33.288,30.075-71.56,39.24-105.973
	c1.125-4.02,3.215-5.628,6.433-5.628c0.643,0,1.447,0,2.09,0.163c3.7,0.803,5.95,3.376,5.95,6.913c0,0.804-0.16,1.608-0.323,2.251
	c-9.487,34.251-24.119,72.043-38.436,101.629C984.077,134,1017.198,130.305,1039.074,126.286z"/>
</svg>
