<?xml version="1.0" encoding="utf-8"?>
<!-- Generator: Adobe Illustrator 21.1.0, SVG Export Plug-In . SVG Version: 6.00 Build 0)  -->
<svg version="1.1" id="レイヤー_1" xmlns="http://www.w3.org/2000/svg" xmlns:xlink="http://www.w3.org/1999/xlink" x="0px"
	 y="0px" viewBox="0 0 90 38.1" style="enable-background:new 0 0 90 38.1;" xml:space="preserve">
<style type="text/css">
	.st0{display:none;}
	.st1{enable-background:new    ;}
	.st2{fill:#FFFFFF;}
</style>
<g id="frame">
</g>
<g id="back-ground" class="st0">
</g>
<g id="bg">
</g>
<g id="header" class="st0">
</g>
<g id="art">
	<g class="st1">
		<path class="st2" d="M1.4,29.9v-16c0-6,3.7-9.6,8.6-9.6s8.6,3.7,8.6,9.6v16h-3.4V18.4H6.2v-3.2h9.1v-1.6c0-4-2.1-6.3-5.2-6.3
			s-5.2,2.3-5.2,6.3v16.2H1.4z"/>
		<path class="st2" d="M24.6,4.7v15.5c0,4.8,2.5,7.1,5.5,7.1c3.4,0,5.8-2.5,5.8-6c0-3.6-2.3-5.9-5.7-5.9c-1.4,0-3.2,0.7-4.4,1.5
			v-3.3c1.5-0.9,3.2-1.2,4.9-1.2c4.4,0,8.3,3.7,8.3,8.6c0,5.1-3.3,9.4-8.9,9.4c-5.1,0-8.7-3.8-8.7-9.5V4.7H24.6z"/>
		<path class="st2" d="M50,12.2c4.8,0,9,3.7,9,9s-4.2,9-9,9c-4.8,0-9-3.7-9-9S45.3,12.2,50,12.2z M50,27.2c3.3,0,5.7-2.4,5.7-6
			s-2.4-6-5.7-6s-5.7,2.4-5.7,6S46.8,27.2,50,27.2z"/>
		<path class="st2" d="M76.4,12.6v10.1c0,4.5-3.2,7.6-7.4,7.6s-7.4-3-7.4-7.6V12.6h3.2v10.1c0,2.7,1.9,4.5,4.2,4.5s4.2-1.9,4.2-4.5
			V12.6H76.4z"/>
		<path class="st2" d="M89.5,15.6h-6.2v9.1c0,1.6,0.8,2.2,2.4,2.2h3.8v3h-4.2c-3.2,0-5.1-2.2-5.1-5.6v-16h3.2v4.3h6.2V15.6z"/>
	</g>
</g>
<g id="slice">
</g>
</svg>
