<?xml version="1.0" encoding="utf-8"?>
<!-- Generator: Adobe Illustrator 21.1.0, SVG Export Plug-In . SVG Version: 6.00 Build 0)  -->
<svg version="1.1" id="レイヤー_1" xmlns="http://www.w3.org/2000/svg" xmlns:xlink="http://www.w3.org/1999/xlink" x="0px"
	 y="0px" viewBox="0 0 111.3 27.5" style="enable-background:new 0 0 111.3 27.5;" xml:space="preserve">
<style type="text/css">
	.st0{display:none;}
	.st1{enable-background:new    ;}
	.st2{fill:#FFFFFF;}
</style>
<g id="frame">
</g>
<g id="back-ground" class="st0">
</g>
<g id="bg">
</g>
<g id="header" class="st0">
</g>
<g id="art">
	<g class="st1">
		<path class="st2" d="M1.5,21.6V3.4h4.6c5.1,0,8.9,4.2,8.9,9.1c0,4.9-3.8,9.1-8.9,9.1H5v-2.3h1.3c3.4,0,6.2-3,6.2-6.8
			c0-4-2.9-6.8-7-6.8H4v15.9H1.5z"/>
		<path class="st2" d="M23.1,8.8c3.5,0,6.5,2.7,6.5,6.5s-3,6.5-6.5,6.5c-3.5,0-6.5-2.7-6.5-6.5S19.7,8.8,23.1,8.8z M23.1,19.7
			c2.4,0,4.1-1.8,4.1-4.3S25.5,11,23.1,11c-2.4,0-4.1,1.8-4.1,4.3S20.7,19.7,23.1,19.7z"/>
		<path class="st2" d="M47.8,9.1v8.5c0,2.3-1.9,4.3-4.5,4.3c-1.4,0-2.8-0.6-3.6-1.8c-0.8,1.2-2.2,1.8-3.6,1.8
			c-2.5,0-4.5-1.9-4.5-4.3V9.1h2.3v8c0,1.6,0.9,2.6,2.2,2.6c1.5,0,2.4-0.8,2.4-3V9.1h2.3v7.6c0,2.1,1,3,2.4,3c1.4,0,2.2-1,2.2-2.6
			v-8H47.8z"/>
		<path class="st2" d="M50.3,21.6v-7.3c0-3.3,2.3-5.5,5.3-5.5c3,0,5.3,2.2,5.3,5.5v7.3h-2.3v-7.3c0-1.9-1.4-3.3-3-3.3
			c-1.6,0-3,1.4-3,3.3v7.3H50.3z"/>
		<path class="st2" d="M63.9,21.6V3.4h2.3v18.2H63.9z"/>
		<path class="st2" d="M75.1,8.8c3.5,0,6.5,2.7,6.5,6.5s-3,6.5-6.5,6.5c-3.5,0-6.5-2.7-6.5-6.5S71.7,8.8,75.1,8.8z M75.1,19.7
			c2.4,0,4.1-1.8,4.1-4.3S77.5,11,75.1,11c-2.4,0-4.1,1.8-4.1,4.3S72.7,19.7,75.1,19.7z"/>
		<path class="st2" d="M93.5,21.6v-7c0-2.3-2-3.5-4.1-3.5c-2.5,0-4.1,2-4.1,4.4c0,2.3,1.7,4.3,4.1,4.3c1.3,0,2.4-0.7,3.1-1.7v2.7
			c-0.9,0.7-1.8,1.2-3.4,1.2c-3.6,0-6.1-3-6.1-6.6c0-3.6,2.4-6.4,6.4-6.4c3.8,0,6.3,2.3,6.3,5.9v6.8H93.5z"/>
		<path class="st2" d="M110.2,3.4V15c0,4.1-2.6,6.9-6.3,6.9c-4.1,0-6.4-3.1-6.4-6.8c0-3.5,2.8-6.2,6-6.2c1.2,0,2.4,0.3,3.5,0.9v2.4
			c-0.8-0.6-2.1-1.1-3.1-1.1c-2.5,0-4.1,1.7-4.1,4.3c0,2.5,1.7,4.3,4.2,4.3c2.2,0,4-1.7,4-5.1V3.4H110.2z"/>
	</g>
</g>
<g id="slice">
</g>
</svg>
