<?xml version="1.0" encoding="utf-8"?>
<!-- Generator: Adobe Illustrator 21.1.0, SVG Export Plug-In . SVG Version: 6.00 Build 0)  -->
<svg version="1.1" id="レイヤー_1" xmlns="http://www.w3.org/2000/svg" xmlns:xlink="http://www.w3.org/1999/xlink" x="0px"
	 y="0px" viewBox="0 0 102.6 27.5" style="enable-background:new 0 0 102.6 27.5;" xml:space="preserve">
<style type="text/css">
	.st0{display:none;}
	.st1{enable-background:new    ;}
	.st2{fill:#FFFFFF;}
</style>
<g id="frame">
</g>
<g id="back-ground" class="st0">
</g>
<g id="bg">
</g>
<g id="header" class="st0">
</g>
<g id="art">
	<g class="st1">
		<path class="st2" d="M11.9,13.3H3.1c0.2,3.4,3.3,6,6.4,6h2.4v2.3H10c-5.5,0-9.4-4-9.4-9.1c0-5.1,4-9.1,9.4-9.1h1.9v2.3h-1.6
			c-4.8,0-7,3.5-7.2,5.4h8.8V13.3z"/>
		<path class="st2" d="M13.2,19.4c2.2-0.1,3.7-1.9,3.7-4.1s-1.6-4-3.7-4.1V9.1c2.2,0.1,3.9,1.1,4.9,3.1c0.7-2,2.9-3.1,4.9-3.1v2.2
			c-2.1,0.1-3.7,1.9-3.7,4.1s1.6,4,3.7,4.1v2.2c-2.1,0-3.8-1-4.9-2.9c-1,1.9-2.6,2.9-4.9,2.9V19.4z"/>
		<path class="st2" d="M34.2,21.6v-7c0-2.3-2-3.5-4.1-3.5c-2.5,0-4.1,2-4.1,4.4c0,2.3,1.7,4.3,4.1,4.3c1.3,0,2.4-0.7,3.1-1.7v2.7
			c-0.9,0.7-1.8,1.2-3.4,1.2c-3.6,0-6.1-3-6.1-6.6c0-3.6,2.4-6.4,6.4-6.4c3.8,0,6.3,2.3,6.3,5.9v6.8H34.2z"/>
		<path class="st2" d="M38.8,21.6v-8.5c0-2.3,1.9-4.3,4.5-4.3c1.4,0,2.8,0.6,3.6,1.8c0.8-1.2,2.2-1.8,3.6-1.8c2.5,0,4.5,1.9,4.5,4.3
			v8.5h-2.3v-8c0-1.6-0.9-2.6-2.2-2.6c-1.5,0-2.4,0.8-2.4,3v7.6h-2.3V14c0-2.1-1-3-2.4-3c-1.4,0-2.2,1-2.2,2.6v8H38.8z"/>
		<path class="st2" d="M57.4,27.2V15.7c0-4.1,2.6-6.9,6.3-6.9c4.1,0,6.4,3.1,6.4,6.8c0,3.5-2.8,6.2-6,6.2c-1.2,0-2.4-0.3-3.5-0.9
			v-2.4c0.8,0.6,2.1,1.1,3.1,1.1c2.5,0,4.1-1.7,4.1-4.3c0-2.5-1.7-4.3-4.2-4.3c-2.2,0-4,1.7-4,5.1v11.1H57.4z"/>
		<path class="st2" d="M72.5,21.6V3.4h2.3v18.2H72.5z"/>
		<path class="st2" d="M81.4,17.5l-0.9-1.8l6.2-3.4c-0.8-0.8-1.4-1.2-2.8-1.2c-2.4,0-4.1,1.8-4.1,4.3s1.7,4.3,4.1,4.3
			c2.7,0,3.7-1.6,4.2-3.9l2.3,0.3c-0.3,3.3-2.9,5.8-6.5,5.8c-3.5,0-6.5-2.7-6.5-6.5s3-6.5,6.5-6.5c2.9,0,4.9,1.5,6,4L81.4,17.5z"/>
		<path class="st2" d="M91.8,19.4h6.4c1.1,0,1.5-0.4,1.5-1.2c0-2.3-7.9-1.4-7.9-5.7c0-2.2,1.5-3.4,4.3-3.4h5.4v2.2h-5.8
			c-1.1,0-1.5,0.3-1.5,1.1c0,2.2,7.9,1.2,7.9,5.7c0,2.4-1.7,3.5-3.9,3.5h-6.4V19.4z"/>
	</g>
</g>
<g id="slice">
</g>
</svg>
