<?xml version="1.0" encoding="utf-8"?>
<!-- Generator: Adobe Illustrator 21.1.0, SVG Export Plug-In . SVG Version: 6.00 Build 0)  -->
<svg version="1.1" id="レイヤー_1" xmlns="http://www.w3.org/2000/svg" xmlns:xlink="http://www.w3.org/1999/xlink" x="0px"
	 y="0px" viewBox="0 0 63.6 27.5" style="enable-background:new 0 0 63.6 27.5;" xml:space="preserve">
<style type="text/css">
	.st0{enable-background:new    ;}
	.st1{fill:#FFFFFF;}
</style>
<g id="bg">
	<g>
		<g class="st0">
			<path class="st1" d="M1.5,21.6V3.4H4V11h7.9V3.4h2.4v18.2h-2.4v-8.3H4v8.3H1.5z"/>
			<path class="st1" d="M23.1,8.8c3.5,0,6.5,2.7,6.5,6.5s-3,6.5-6.5,6.5c-3.5,0-6.5-2.7-6.5-6.5S19.7,8.8,23.1,8.8z M23.1,19.7
				c2.4,0,4.1-1.8,4.1-4.3S25.5,11,23.1,11c-2.4,0-4.1,1.8-4.1,4.3S20.7,19.7,23.1,19.7z"/>
			<path class="st1" d="M31.6,21.6v-8.5c0-2.3,1.9-4.3,4.5-4.3c1.4,0,2.8,0.6,3.6,1.8c0.8-1.2,2.2-1.8,3.6-1.8
				c2.5,0,4.5,1.9,4.5,4.3v8.5h-2.3v-8c0-1.6-0.9-2.6-2.2-2.6c-1.5,0-2.4,0.8-2.4,3v7.6h-2.3V14c0-2.1-1-3-2.4-3
				c-1.4,0-2.2,1-2.2,2.6v8H31.6z"/>
			<path class="st1" d="M54,17.5L53,15.7l6.2-3.4c-0.8-0.8-1.4-1.2-2.8-1.2c-2.4,0-4.1,1.8-4.1,4.3s1.7,4.3,4.1,4.3
				c2.7,0,3.7-1.6,4.2-3.9l2.3,0.3c-0.3,3.3-2.9,5.8-6.5,5.8c-3.5,0-6.5-2.7-6.5-6.5s3-6.5,6.5-6.5c2.9,0,4.9,1.5,6,4L54,17.5z"/>
		</g>
	</g>
</g>
<g id="レイヤー_1_1_">
</g>
</svg>
