<?xml version="1.0" encoding="utf-8"?>
<!-- Generator: Adobe Illustrator 21.1.0, SVG Export Plug-In . SVG Version: 6.00 Build 0)  -->
<svg version="1.1" id="レイヤー_1" xmlns="http://www.w3.org/2000/svg" xmlns:xlink="http://www.w3.org/1999/xlink" x="0px"
	 y="0px" viewBox="0 0 189.3 27.5" style="enable-background:new 0 0 189.3 27.5;" xml:space="preserve">
<style type="text/css">
	.st0{display:none;}
	.st1{enable-background:new    ;}
	.st2{fill:#FFFFFF;}
</style>
<g id="frame">
</g>
<g id="back-ground" class="st0">
</g>
<g id="bg">
</g>
<g id="header" class="st0">
</g>
<g id="art">
	<g>
		<g class="st1">
			<path class="st2" d="M0,21.6L2.1,5c0.2-1.2,1.1-1.9,2-1.9c1.1,0,1.7,0.4,2.3,2.1l3.7,12.2h0.1l3.7-12.2c0.5-1.7,1.2-2.1,2.3-2.1
				c1,0,1.9,0.7,2,1.9l2.1,16.6h-2.5L15.9,6.8h-0.1L12,19.5c-0.5,1.8-1,2.1-1.8,2.1h-0.1c-0.9,0-1.3-0.3-1.8-2.1L4.3,6.8H4.3
				L2.5,21.6H0z"/>
			<path class="st2" d="M27.5,8.8c3.5,0,6.5,2.7,6.5,6.5s-3,6.5-6.5,6.5c-3.5,0-6.5-2.7-6.5-6.5S24,8.8,27.5,8.8z M27.5,19.7
				c2.4,0,4.1-1.8,4.1-4.3S29.8,11,27.5,11c-2.4,0-4.1,1.8-4.1,4.3S25.1,19.7,27.5,19.7z"/>
			<path class="st2" d="M35.8,9.1H38v1.4h0.1c0.8-1.2,1.8-1.7,3.4-1.7H42V11h-0.3c-2.2,0-3.5,1.4-3.5,4.7v5.8h-2.3V9.1z"/>
			<path class="st2" d="M46.8,17.5l-0.9-1.8l6.2-3.4c-0.8-0.8-1.4-1.2-2.8-1.2c-2.4,0-4.1,1.8-4.1,4.3s1.7,4.3,4.1,4.3
				c2.7,0,3.7-1.6,4.2-3.9l2.3,0.3c-0.3,3.3-2.9,5.8-6.5,5.8c-3.5,0-6.5-2.7-6.5-6.5s3-6.5,6.5-6.5c2.9,0,4.9,1.5,6,4L46.8,17.5z"/>
			<path class="st2" d="M67.2,4.9c0.9,0,1.4,0.7,1.4,1.4s-0.5,1.4-1.4,1.4c-0.9,0-1.4-0.7-1.4-1.4S66.3,4.9,67.2,4.9z M66.1,21.6
				V9.1h2.3v12.5H66.1z"/>
			<path class="st2" d="M72,21.6v-7.3c0-3.3,2.3-5.5,5.3-5.5c3,0,5.3,2.2,5.3,5.5v7.3h-2.3v-7.3c0-1.9-1.4-3.3-3-3.3
				c-1.6,0-3,1.4-3,3.3v7.3H72z"/>
			<path class="st2" d="M85.2,21.6V7.9c0-2.8,1.8-4.6,4.4-4.6h1.9v2.2h-1.6c-1.5,0-2.4,0.7-2.4,2.3v1.2h3.7v2.2h-3.7v10.3H85.2z"/>
			<path class="st2" d="M98.3,8.8c3.5,0,6.5,2.7,6.5,6.5s-3,6.5-6.5,6.5c-3.5,0-6.5-2.7-6.5-6.5S94.8,8.8,98.3,8.8z M98.3,19.7
				c2.4,0,4.1-1.8,4.1-4.3s-1.7-4.3-4.1-4.3s-4.1,1.8-4.1,4.3S95.9,19.7,98.3,19.7z"/>
			<path class="st2" d="M106.7,9.1h2.2v1.4h0.1c0.8-1.2,1.8-1.7,3.4-1.7h0.5V11h-0.3c-2.2,0-3.5,1.4-3.5,4.7v5.8h-2.3V9.1z"/>
			<path class="st2" d="M114,21.6v-8.5c0-2.3,1.9-4.3,4.5-4.3c1.4,0,2.8,0.6,3.6,1.8c0.8-1.2,2.2-1.8,3.6-1.8c2.5,0,4.5,1.9,4.5,4.3
				v8.5h-2.3v-8c0-1.6-0.9-2.6-2.2-2.6c-1.5,0-2.4,0.8-2.4,3v7.6H121V14c0-2.1-1-3-2.4-3c-1.4,0-2.2,1-2.2,2.6v8H114z"/>
			<path class="st2" d="M142.6,21.6v-7c0-2.3-2-3.5-4.1-3.5c-2.5,0-4.1,2-4.1,4.4c0,2.3,1.7,4.3,4.1,4.3c1.3,0,2.4-0.7,3.1-1.7v2.7
				c-0.9,0.7-1.8,1.2-3.4,1.2c-3.6,0-6.1-3-6.1-6.6c0-3.6,2.4-6.4,6.4-6.4c3.8,0,6.3,2.3,6.3,5.9v6.8H142.6z"/>
			<path class="st2" d="M154.3,11.3h-4.5v6.6c0,1.2,0.5,1.6,1.7,1.6h2.8v2.2h-3.1c-2.3,0-3.7-1.6-3.7-4V6h2.3v3.1h4.5V11.3z"/>
			<path class="st2" d="M158.2,4.9c0.9,0,1.4,0.7,1.4,1.4s-0.5,1.4-1.4,1.4c-0.9,0-1.4-0.7-1.4-1.4S157.4,4.9,158.2,4.9z
				 M157.1,21.6V9.1h2.3v12.5H157.1z"/>
			<path class="st2" d="M169.1,8.8c3.5,0,6.5,2.7,6.5,6.5s-3,6.5-6.5,6.5c-3.5,0-6.5-2.7-6.5-6.5S165.6,8.8,169.1,8.8z M169.1,19.7
				c2.4,0,4.1-1.8,4.1-4.3s-1.7-4.3-4.1-4.3c-2.4,0-4.1,1.8-4.1,4.3S166.7,19.7,169.1,19.7z"/>
			<path class="st2" d="M177.5,21.6v-7.3c0-3.3,2.3-5.5,5.3-5.5s5.3,2.2,5.3,5.5v7.3h-2.3v-7.3c0-1.9-1.4-3.3-3-3.3s-3,1.4-3,3.3
				v7.3H177.5z"/>
		</g>
	</g>
</g>
<g id="slice">
</g>
</svg>
