<?xml version="1.0" encoding="utf-8"?>
<!-- Generator: Adobe Illustrator 21.1.0, SVG Export Plug-In . SVG Version: 6.00 Build 0)  -->
<svg version="1.1" id="レイヤー_1" xmlns="http://www.w3.org/2000/svg" xmlns:xlink="http://www.w3.org/1999/xlink" x="0px"
	 y="0px" viewBox="0 0 122.8 27.5" style="enable-background:new 0 0 122.8 27.5;" xml:space="preserve">
<style type="text/css">
	.st0{display:none;}
	.st1{enable-background:new    ;}
	.st2{fill:#FFFFFF;}
</style>
<g id="frame">
</g>
<g id="back-ground" class="st0">
</g>
<g id="bg">
</g>
<g id="header" class="st0">
</g>
<g id="art">
	<g class="st1">
		<path class="st2" d="M3.6,3.4v12c0,2.5,1.2,4.3,3.6,4.3c2.3,0,3.6-1.8,3.6-4.3v-12h2.4v12.2c0,3.5-2.6,6.3-6,6.3s-6-2.8-6-6.3V3.4
			H3.6z"/>
		<path class="st2" d="M15.5,27.2V15.7c0-4.1,2.6-6.9,6.3-6.9c4.1,0,6.4,3.1,6.4,6.8c0,3.5-2.8,6.2-6,6.2c-1.2,0-2.4-0.3-3.5-0.9
			v-2.4c0.8,0.6,2.1,1.1,3.1,1.1c2.5,0,4.1-1.7,4.1-4.3c0-2.5-1.7-4.3-4.2-4.3c-2.2,0-4,1.7-4,5.1v11.1H15.5z"/>
		<path class="st2" d="M42.3,3.4V15c0,4.1-2.6,6.9-6.3,6.9c-4.1,0-6.4-3.1-6.4-6.8c0-3.5,2.8-6.2,6-6.2c1.2,0,2.4,0.3,3.5,0.9v2.4
			C38.3,11.5,37,11,36,11c-2.5,0-4.1,1.7-4.1,4.3c0,2.5,1.7,4.3,4.2,4.3c2.2,0,4-1.7,4-5.1V3.4H42.3z"/>
		<path class="st2" d="M54.5,21.6v-7c0-2.3-2-3.5-4.1-3.5c-2.5,0-4.1,2-4.1,4.4c0,2.3,1.7,4.3,4.1,4.3c1.3,0,2.4-0.7,3.1-1.7v2.7
			c-0.9,0.7-1.8,1.2-3.4,1.2c-3.6,0-6.1-3-6.1-6.6c0-3.6,2.4-6.4,6.4-6.4c3.8,0,6.3,2.3,6.3,5.9v6.8H54.5z"/>
		<path class="st2" d="M66.1,11.3h-4.5v6.6c0,1.2,0.5,1.6,1.7,1.6h2.8v2.2h-3.1c-2.3,0-3.7-1.6-3.7-4V6h2.3v3.1h4.5V11.3z"/>
		<path class="st2" d="M71.3,17.5l-0.9-1.8l6.2-3.4c-0.8-0.8-1.4-1.2-2.8-1.2c-2.4,0-4.1,1.8-4.1,4.3s1.7,4.3,4.1,4.3
			c2.7,0,3.7-1.6,4.2-3.9l2.3,0.3c-0.3,3.3-2.9,5.8-6.5,5.8c-3.5,0-6.5-2.7-6.5-6.5s3-6.5,6.5-6.5c2.9,0,4.9,1.5,6,4L71.3,17.5z"/>
		<path class="st2" d="M89.9,21.6V3.4h2.3v18.2H89.9z"/>
		<path class="st2" d="M101.2,8.8c3.5,0,6.5,2.7,6.5,6.5s-3,6.5-6.5,6.5c-3.5,0-6.5-2.7-6.5-6.5S97.7,8.8,101.2,8.8z M101.2,19.7
			c2.4,0,4.1-1.8,4.1-4.3s-1.7-4.3-4.1-4.3c-2.4,0-4.1,1.8-4.1,4.3S98.8,19.7,101.2,19.7z"/>
		<path class="st2" d="M118.6,21c-0.9,0.5-2.1,0.8-2.9,0.8c-3.6,0-6.4-2.7-6.4-6.3c0-3.7,2.5-6.7,6.4-6.7c3.8,0,6.1,3.1,6.1,6.2v5.6
			c0,4.7-2.9,6.9-6.5,6.9c-1.4,0-2.8-0.3-4.1-0.7l0.5-2.1c1.1,0.3,2.3,0.6,3.5,0.6c2.1,0,4.3-0.9,4.3-4v-5.8c0-2.8-1.8-4.5-4-4.5
			c-2.7,0-4.1,2.2-4.1,4.6s1.8,4,4.2,4c1,0,2-0.5,2.9-1V21z"/>
	</g>
</g>
<g id="slice">
</g>
</svg>
